<?xml version="1.0" encoding="UTF-8" standalone="no"?>
<!DOCTYPE svg PUBLIC "-//W3C//DTD SVG 1.1//EN" "http://www.w3.org/Graphics/SVG/1.1/DTD/svg11.dtd">
<svg version="1.1" xmlns="http://www.w3.org/2000/svg" xmlns:xlink="http://www.w3.org/1999/xlink" preserveAspectRatio="xMidYMid meet" viewBox="0 0 640 640" width="640" height="640"><defs><path d="M66.66 362.32C53.15 350.32 43.5 334.03 39.86 315.64C29.73 308.48 21.22 299.14 15.04 288.31C8.02 276 4 261.82 4 246.79C4 229.03 9.57 212.49 19.05 198.85C27.2 187.13 38.3 177.54 51.27 171.15C53.82 158.43 60.31 147.09 69.41 138.5C78.44 129.96 90.05 124.12 102.9 122.29C107.07 112.92 113.52 104.77 121.53 98.56C131.95 90.49 144.97 85.67 159.04 85.67C162.21 85.67 187.62 85.67 190.79 85.67C196.78 77.29 204.47 70.21 213.33 64.99C224.25 58.55 236.92 54.84 250.38 54.84C257.6 54.84 264.71 55.96 271.52 58.03C274.97 59.08 278.31 60.37 281.52 61.89C287.06 57.41 293.22 53.66 299.82 50.81C309.39 46.68 319.9 44.39 330.91 44.39C342.08 44.39 352.77 46.76 362.48 51.03C370.07 54.37 377.06 58.89 383.2 64.35C383.99 64.22 384.78 64.11 385.59 64C389.17 63.53 392.6 63.28 395.85 63.28C408.51 63.28 420.54 66.33 431.24 71.74C439.83 76.09 447.54 81.96 453.99 89.01C456.5 88.79 458.77 88.67 460.8 88.67C476.03 88.67 490.3 93.05 502.41 100.62C512.49 106.92 521.06 115.44 527.44 125.48C538.43 126.13 548.36 130.88 555.69 138.21C562.91 145.43 567.63 155.16 568.39 165.94C576.78 169.02 584.19 174.12 590.04 180.63C598.67 190.24 603.93 202.91 603.93 216.74C603.93 223.74 602.55 230.51 600.03 236.77C599.27 238.68 598.4 240.54 597.42 242.34C607.62 251.72 616.16 262.88 622.51 275.32C630.63 291.23 635.22 309.13 635.22 327.97C635.22 347.62 630.24 366.24 621.47 382.61C613.57 397.37 602.59 410.25 589.4 420.37C589.4 421.95 589.4 434.54 589.4 436.11C589.4 453.13 582.45 468.6 571.25 479.8C560.04 491 544.58 497.96 527.56 497.96C521.51 497.96 515.59 497.04 509.93 495.33C508.09 512.47 500.31 527.9 488.71 539.5C475.37 552.85 456.94 561.13 436.66 561.13C418.94 561.13 402.64 554.81 389.9 544.3C389.9 547.14 389.9 569.86 389.9 572.7C389.9 579.02 387.33 584.75 383.18 588.89C379.04 593.04 373.31 595.61 366.99 595.61C365.16 595.61 350.52 595.61 348.69 595.61C342.38 595.61 336.65 593.04 332.5 588.89C328.39 584.78 325.83 579.12 325.78 572.87C318.47 463.46 238.28 456.67 228.44 456.25C228.18 456.26 227.92 456.27 227.65 456.27C211.27 456.27 196.39 449.58 185.61 438.8C174.83 428.02 168.14 413.14 168.14 396.76C168.14 392.28 168.65 387.89 169.62 383.65C164.92 383.65 127.26 383.65 122.56 383.65C101.17 383.65 81.58 375.57 66.66 362.32" id="a1Iy7H8ER9"></path><path d="M73.21 328.53C76.26 333.66 80.1 338.28 84.54 342.24C94.68 351.24 108 356.72 122.56 356.72C128.52 356.72 176.23 356.72 182.19 356.72C182.71 356.72 183.18 356.72 183.61 356.71C185.41 354.65 187.34 352.71 189.35 350.91C183.53 345.45 179.15 338.31 177.08 329.99C176.47 327.52 176.08 324.99 175.91 322.46C175.75 319.94 175.8 317.41 176.09 314.91C176.9 307.53 183.54 302.21 190.92 303.03C198.29 303.84 203.61 310.48 202.8 317.86C202.69 318.83 202.67 319.81 202.73 320.77C202.79 321.71 202.94 322.65 203.17 323.57C204.23 327.84 206.91 331.26 210.38 333.35C213.16 335.03 216.45 335.86 219.84 335.6C229.22 333.68 239.1 333.8 248.8 336.21C256.01 337.99 260.41 345.26 258.64 352.46C256.87 359.66 249.59 364.07 242.39 362.3C237.57 361.1 232.66 360.86 227.91 361.49C226.75 361.75 225.59 361.96 224.43 362.12C222.75 362.5 221.1 362.99 219.49 363.59C212.55 366.16 206.33 370.73 201.76 376.97C201.53 377.33 201.28 377.67 201.01 378.01C199.15 380.64 197.66 383.56 196.64 386.7C195.61 389.82 195.06 393.2 195.06 396.76C195.06 405.7 198.73 413.85 204.65 419.76C210.56 425.68 218.7 429.35 227.65 429.35C228.19 429.35 228.72 429.38 229.23 429.44C233.88 429.64 249.8 430.88 268.75 438.4C269.58 432.27 271.27 426.3 273.75 420.69C279.71 407.21 290.21 395.72 304.18 388.66C310.8 385.32 318.88 387.98 322.21 394.6C325.55 401.22 322.89 409.3 316.27 412.64C308.06 416.79 301.88 423.56 298.36 431.52C295.44 438.12 294.35 445.51 295.44 452.89C321.49 471.44 346.4 504.65 352.02 564.13C352.48 566.72 354.74 568.69 357.45 568.69C360.5 568.69 362.98 566.2 362.98 563.13C362.98 555.56 362.98 495.02 362.98 487.45C362.98 480.01 369.01 473.99 376.44 473.99C383.88 473.99 389.9 480.01 389.9 487.45C389.9 500.29 395.17 511.98 403.65 520.46C412.13 528.94 423.82 534.21 436.66 534.21C449.51 534.21 461.2 528.94 469.68 520.46C478.16 511.98 483.43 500.29 483.43 487.45C483.43 486.05 483.43 474.86 483.43 473.46C483.43 462.09 479.36 451.56 472.5 443.38C465.65 435.21 456 429.38 444.83 427.41C439.27 426.44 435.11 422.17 433.99 416.97C429.33 401.56 420.87 387.87 409.7 376.96C398.29 365.81 384.07 357.57 368.17 353.33C361 351.44 356.71 344.1 358.6 336.93C360.49 329.75 367.83 325.47 375.01 327.35C395.48 332.81 413.77 343.4 428.42 357.71C441.21 370.21 451.24 385.56 457.53 402.8C471.71 406.99 483.98 415.24 493.11 426.13C502.47 437.29 508.54 451.21 510 466.32C511.85 467.4 513.79 468.32 515.82 469.05C519.39 470.33 523.34 471.03 527.56 471.03C537.15 471.03 545.88 467.1 552.21 460.76C558.55 454.43 562.48 445.7 562.48 436.11C562.48 435.6 562.48 431.49 562.48 430.97C550.06 432.56 537.67 430.77 526.47 426.1C512.74 420.39 500.82 410.35 492.86 396.89C489.08 390.5 491.2 382.26 497.59 378.49C503.98 374.71 512.22 376.83 515.99 383.22C520.92 391.54 528.29 397.75 536.77 401.29C545.27 404.82 554.89 405.69 564.3 403.31C565.57 402.99 566.65 402.68 567.54 402.38C568.19 402.16 568.87 401.92 569.58 401.63C581.32 393.49 591.04 382.63 597.81 369.99C604.5 357.5 608.3 343.19 608.3 327.97C608.3 313.36 604.81 299.61 598.63 287.52C592.16 274.84 582.76 263.89 571.36 255.56C571.11 255.37 570.87 255.19 570.63 254.99C567.47 252.51 563.9 250.57 560.08 249.23C556.26 247.89 552.14 247.19 547.88 247.19C537.73 247.19 528.55 251.3 521.9 257.95C515.25 264.6 511.13 273.79 511.13 283.94C511.13 291.37 505.11 297.4 497.67 297.4C490.24 297.4 484.21 291.37 484.21 283.94C484.21 275.6 485.81 267.64 488.73 260.34C486.6 259.48 484.55 258.46 482.59 257.28C473.18 251.62 465.93 242.37 463.07 230.89C462.46 228.41 462.06 225.89 461.9 223.35C461.73 220.83 461.79 218.31 462.07 215.81C462.89 208.43 469.52 203.11 476.9 203.92C484.28 204.74 489.6 211.38 488.79 218.75C488.68 219.73 488.65 220.71 488.72 221.67C488.78 222.61 488.92 223.55 489.15 224.47C490.21 228.73 492.89 232.16 496.37 234.25C499.03 235.85 502.16 236.68 505.39 236.52C516.66 226.42 531.55 220.27 547.88 220.27C555.03 220.27 562.14 221.51 568.92 223.88C571.06 224.63 573.16 225.5 575.22 226.49C576.38 223.51 577.01 220.23 577.01 216.74C577.01 209.78 574.37 203.42 570.06 198.61C565.65 193.71 559.55 190.39 552.74 189.65C545.36 188.87 540.02 182.25 540.8 174.88C540.88 174.19 541 173.52 541.17 172.87C541.28 172.38 541.38 171.79 541.47 171.08C541.47 171.05 541.5 170.86 541.5 170.83C541.55 170.29 541.58 169.7 541.58 169.06C541.58 164.47 539.7 160.29 536.66 157.25C536.15 156.75 535.62 156.28 535.06 155.84C534.63 159.08 533.81 162.24 532.65 165.27C528.81 175.25 521.19 183.76 510.7 188.42C508.43 189.44 506.06 190.25 503.63 190.84C501.2 191.44 498.74 191.81 496.29 191.97C488.88 192.4 482.53 186.75 482.09 179.35C481.66 171.94 487.31 165.58 494.71 165.15C495.62 165.09 496.49 164.96 497.32 164.76C498.15 164.56 498.97 164.27 499.77 163.92C503.54 162.24 506.26 159.22 507.62 155.7C508.89 152.38 508.99 148.61 507.63 145.07C507.45 144.72 507.29 144.37 507.14 144.01C502.8 135.58 496.23 128.46 488.21 123.45C480.25 118.47 470.86 115.59 460.8 115.59C458.82 115.59 457.17 115.66 455.85 115.79C454.52 115.91 453.08 116.12 451.52 116.41C445.11 118.19 439.39 121.54 434.83 126.01C430.12 130.63 426.58 136.41 424.7 142.91C424.07 145.09 423.63 147.35 423.39 149.66C423.15 151.91 423.12 154.24 423.3 156.63C423.82 164.04 418.24 170.47 410.84 170.99C403.43 171.51 397 165.93 396.48 158.53C396.2 154.72 396.27 150.84 396.67 146.93C397.08 143.09 397.83 139.24 398.93 135.45C402.13 124.41 408.09 114.62 416 106.87C418.84 104.09 421.93 101.57 425.23 99.33C423.29 98 421.26 96.79 419.14 95.72C412.17 92.19 404.26 90.21 395.85 90.21C393.33 90.21 391.07 90.34 389.06 90.61C386.95 90.88 384.74 91.34 382.43 91.96C377.26 93.34 372 91.52 368.74 87.72C363.96 82.63 358.15 78.5 351.65 75.64C345.32 72.86 338.3 71.31 330.91 71.31C323.64 71.31 316.72 72.82 310.45 75.52C303.88 78.36 298.01 82.5 293.17 87.6C288.48 92.53 280.96 93.12 275.6 89.25C271.94 86.86 267.96 84.97 263.74 83.69C259.62 82.44 255.14 81.77 250.38 81.77C241.83 81.77 233.85 84.09 227.01 88.12C220.88 91.74 215.65 96.69 211.74 102.56C212.55 111.34 216.45 119.23 222.34 125.12C228.99 131.77 238.18 135.88 248.33 135.88C250.72 135.88 252.91 135.7 254.87 135.35C257 134.97 259.12 134.39 261.18 133.62C268.12 131.04 275.84 134.57 278.42 141.51C281.01 148.45 277.48 156.17 270.54 158.75C266.99 160.08 263.33 161.08 259.6 161.75C255.7 162.45 251.93 162.81 248.33 162.81C230.75 162.81 214.83 155.68 203.31 144.16C194.81 135.66 188.71 124.77 186.09 112.59C183.38 112.59 161.74 112.59 159.04 112.59C151.09 112.59 143.77 115.29 137.94 119.8C131.95 124.45 127.51 131 125.56 138.51C123.99 144.56 118.54 148.57 112.57 148.57C112.57 148.57 112.57 148.58 112.57 148.61C111.93 148.61 111.58 148.61 111.51 148.61C102.35 148.61 94.01 152.21 87.81 158.06C86.33 159.46 84.97 160.99 83.75 162.63C85.29 162.54 86.81 162.5 88.32 162.5C111.6 162.5 132.68 171.93 147.94 187.19C150.22 189.47 152.37 191.89 154.38 194.41C155.88 193.68 157.43 193.03 159.02 192.48C170.19 188.58 181.9 189.58 191.8 194.35C201.65 199.1 209.69 207.61 213.58 218.74C216.04 225.74 212.37 233.41 205.37 235.87C198.38 238.33 190.71 234.66 188.24 227.66C186.78 223.47 183.77 220.27 180.07 218.49C176.42 216.73 172.09 216.37 167.94 217.81C167.82 217.86 167.69 217.9 167.56 217.95C170.84 226.95 172.63 236.67 172.63 246.81C172.63 254.24 166.61 260.27 159.17 260.27C151.74 260.27 145.71 254.24 145.71 246.81C145.71 230.96 139.29 216.61 128.9 206.23C118.52 195.84 104.17 189.42 88.32 189.42C84.71 189.42 81.29 189.71 78.12 190.28C75 190.84 71.91 191.67 68.9 192.75C68.5 192.93 68.09 193.08 67.68 193.21C56.93 197.38 47.7 204.77 41.14 214.21C34.7 223.46 30.92 234.7 30.92 246.79C30.92 257.08 33.64 266.74 38.39 275.06C43.29 283.64 50.34 290.86 58.8 295.98C59.2 296.21 59.6 296.46 59.99 296.74C61.34 297.69 62.72 298.5 64.12 299.16C65.51 299.81 67.02 300.36 68.63 300.79C75.89 302.72 83.23 301.54 89.23 298.06C95.23 294.58 99.9 288.83 101.82 281.63C103.71 274.45 111.05 270.17 118.23 272.06C125.4 273.94 129.69 281.29 127.8 288.46C123.96 302.89 114.64 314.38 102.69 321.3C93.91 326.39 83.71 329.02 73.21 328.53M268.61 289.32C265.48 296.02 257.5 298.92 250.79 295.78C244.08 292.65 241.18 284.67 244.32 277.96C250.48 264.85 259.92 253.95 271.4 246.09C282.9 238.22 296.47 233.36 310.89 232.36C318 231.86 325.1 232.33 332 233.71C331.95 233.45 331.91 233.2 331.88 232.94C331.07 227.63 330.81 222.3 331.08 217.04C325.83 214.33 321.1 210.81 317.05 206.64C310.26 199.64 305.35 190.82 303.08 180.98C300.96 171.74 301.33 162.28 303.93 153.47C306.54 144.65 311.38 136.5 318.19 129.89C323.5 124.72 332 124.84 337.17 130.15C342.34 135.47 342.22 143.97 336.91 149.14C333.46 152.48 331.01 156.6 329.7 161.04C328.38 165.5 328.19 170.3 329.27 174.98C330.41 179.96 332.89 184.4 336.3 187.92C336.73 188.36 337.17 188.79 337.63 189.2C342.51 178.02 349.98 167.91 359.69 159.82C365.38 155.09 373.83 155.87 378.57 161.56C383.3 167.25 382.52 175.7 376.83 180.44C369.76 186.33 364.48 193.87 361.31 202.24C358.14 210.59 357.09 219.77 358.48 228.95C359.71 237.04 362.74 244.55 367.2 251.01C367.41 251.28 367.6 251.56 367.79 251.84C368.38 252.66 368.99 253.47 369.63 254.25C375.46 261.44 383.15 267.1 392.08 270.45C399.02 273.03 402.56 280.75 399.97 287.69C397.39 294.64 389.66 298.17 382.72 295.58C369.18 290.51 357.57 281.99 348.8 271.18C348.16 270.39 347.53 269.57 346.91 268.75C342.21 265.42 337.01 262.9 331.53 261.27C325.47 259.45 319.09 258.73 312.67 259.17C303.15 259.84 294.17 263.06 286.55 268.28C278.91 273.51 272.66 280.7 268.61 289.32" id="acYubuFIt"></path><path d="M591.04 350.5C589.73 354.19 585.68 356.11 581.99 354.79C578.31 353.48 576.39 349.43 577.7 345.74C578.79 342.71 579.6 339.62 580.14 336.52C580.68 333.4 580.95 330.21 580.95 326.97C580.95 317.7 578.66 308.74 574.46 300.81C570.24 292.86 564.12 285.94 556.47 280.76C553.25 278.57 552.41 274.19 554.59 270.96C556.78 267.74 561.16 266.9 564.39 269.08C574.01 275.6 581.69 284.27 586.96 294.22C592.24 304.18 595.12 315.39 595.12 326.97C595.12 330.95 594.78 334.93 594.09 338.9C593.4 342.87 592.38 346.75 591.04 350.5" id="b2HTNar1UE"></path><path d="M79.48 201.78C83.3 200.97 87.05 203.42 87.86 207.24C88.67 211.06 86.23 214.81 82.41 215.62C75.22 217.16 69.05 221.11 64.67 226.53C60.3 231.93 57.72 238.8 57.72 246.16C57.72 251.36 59.01 256.38 61.36 260.82C63.72 265.27 67.14 269.14 71.41 272.03C74.64 274.22 75.48 278.61 73.29 281.83C71.11 285.06 66.72 285.9 63.5 283.71C57.25 279.48 52.27 273.85 48.85 267.4C45.42 260.94 43.55 253.67 43.55 246.16C43.55 235.46 47.3 225.48 53.66 217.62C60.01 209.76 68.99 204.02 79.48 201.78" id="a1tDeVbgGy"></path><path d="M328.34 272.74C332.16 273.55 334.6 277.3 333.79 281.13C332.98 284.95 329.23 287.39 325.41 286.58C324.36 286.35 323.35 286.19 322.39 286.09C321.47 285.99 320.44 285.94 319.3 285.94C314.05 285.94 309 287.36 304.63 289.91C300.21 292.49 296.49 296.18 293.93 300.71C292.02 304.11 287.72 305.31 284.33 303.4C280.94 301.49 279.73 297.19 281.64 293.8C285.5 286.96 291.01 281.46 297.49 277.68C304 273.88 311.5 271.77 319.3 271.77C320.7 271.77 322.21 271.86 323.83 272.03C325.39 272.2 326.9 272.43 328.34 272.74" id="b1C4rtvmIr"></path><path d="M474.86 472.58C475.08 476.48 472.11 479.82 468.21 480.05C464.32 480.28 460.97 477.31 460.74 473.41C460.39 467.43 457.86 462.05 453.94 458.04C450.02 454.03 444.68 451.39 438.72 450.91C434.82 450.6 431.91 447.2 432.22 443.3C432.52 439.4 435.93 436.49 439.83 436.79C449.3 437.56 457.77 441.76 464.02 448.14C470.27 454.52 474.29 463.09 474.86 472.58" id="b1dVfmD8Z"></path><path d="M464.87 126.52C468.76 126.58 471.87 129.79 471.81 133.68C471.75 137.58 468.54 140.69 464.64 140.63C464.32 140.62 463.83 140.65 463.18 140.71C462.63 140.75 462.15 140.82 461.74 140.9C457.92 141.63 454.77 143.84 452.76 146.81C450.75 149.77 449.87 153.52 450.61 157.35C450.63 157.49 450.74 158.55 450.75 158.68C450.75 162.6 447.58 165.77 443.66 165.77C440.04 165.77 437.05 163.04 436.63 159.53C435.33 152.07 437.11 144.75 441.08 138.89C445.13 132.91 451.45 128.47 459.08 127C460.1 126.81 461.06 126.67 461.96 126.59C462.77 126.52 463.74 126.5 464.87 126.52" id="b2BfoYPUn"></path><path d="M363.51 98.94C365.92 102.01 365.39 106.46 362.32 108.87C359.24 111.29 354.79 110.76 352.38 107.68C351.77 106.91 351.17 106.22 350.58 105.62C349.98 104.99 349.3 104.36 348.56 103.74C342.91 99.02 335.89 97.03 329.11 97.63C322.35 98.23 315.8 101.43 311.07 107.08C308.57 110.07 304.11 110.47 301.11 107.96C298.11 105.46 297.72 101 300.22 98C307.44 89.38 317.48 84.5 327.89 83.57C338.28 82.65 349.02 85.68 357.64 92.9C358.68 93.77 359.7 94.72 360.71 95.76C361.74 96.82 362.67 97.88 363.51 98.94" id="bnFj7AT7E"></path><path d="M230.67 373.97C234.59 373.97 237.76 377.14 237.76 381.05C237.76 384.97 234.59 388.14 230.67 388.14C228.33 388.14 226.2 389.09 224.67 390.63C223.13 392.16 222.18 394.29 222.18 396.63C222.18 398.98 223.13 401.1 224.67 402.64C226.2 404.18 228.33 405.13 230.67 405.13C231.06 405.13 231.05 405.14 231.13 405.13C231.27 405.12 231.43 405.11 231.59 405.1C235.47 404.7 238.94 407.52 239.33 411.41C239.73 415.29 236.91 418.76 233.02 419.16C232.64 419.2 232.25 419.23 231.85 419.25C231.23 419.28 230.83 419.3 230.67 419.3C224.42 419.3 218.75 416.76 214.65 412.66C210.55 408.56 208.01 402.89 208.01 396.63C208.01 390.38 210.55 384.71 214.65 380.61C218.75 376.51 224.42 373.97 230.67 373.97" id="g1KF42jfrq"></path></defs><g><g><g><g><use xlink:href="#a1Iy7H8ER9" opacity="1" fill="#570406" fill-opacity="1"></use><g><use xlink:href="#a1Iy7H8ER9" opacity="1" fill-opacity="0" stroke="#000000" stroke-width="1" stroke-opacity="0"></use></g></g><g><use xlink:href="#acYubuFIt" opacity="1" fill="#ed6678" fill-opacity="1"></use><g><use xlink:href="#acYubuFIt" opacity="1" fill-opacity="0" stroke="#000000" stroke-width="1" stroke-opacity="0"></use></g></g><g><use xlink:href="#b2HTNar1UE" opacity="1" fill="#ffffff" fill-opacity="1"></use><g><use xlink:href="#b2HTNar1UE" opacity="1" fill-opacity="0" stroke="#000000" stroke-width="1" stroke-opacity="0"></use></g></g><g><use xlink:href="#a1tDeVbgGy" opacity="1" fill="#ffffff" fill-opacity="1"></use><g><use xlink:href="#a1tDeVbgGy" opacity="1" fill-opacity="0" stroke="#000000" stroke-width="1" stroke-opacity="0"></use></g></g><g><use xlink:href="#b1C4rtvmIr" opacity="1" fill="#ffffff" fill-opacity="1"></use><g><use xlink:href="#b1C4rtvmIr" opacity="1" fill-opacity="0" stroke="#000000" stroke-width="1" stroke-opacity="0"></use></g></g><g><use xlink:href="#b1dVfmD8Z" opacity="1" fill="#ffffff" fill-opacity="1"></use><g><use xlink:href="#b1dVfmD8Z" opacity="1" fill-opacity="0" stroke="#000000" stroke-width="1" stroke-opacity="0"></use></g></g><g><use xlink:href="#b2BfoYPUn" opacity="1" fill="#ffffff" fill-opacity="1"></use><g><use xlink:href="#b2BfoYPUn" opacity="1" fill-opacity="0" stroke="#000000" stroke-width="1" stroke-opacity="0"></use></g></g><g><use xlink:href="#bnFj7AT7E" opacity="1" fill="#ffffff" fill-opacity="1"></use><g><use xlink:href="#bnFj7AT7E" opacity="1" fill-opacity="0" stroke="#000000" stroke-width="1" stroke-opacity="0"></use></g></g><g><use xlink:href="#g1KF42jfrq" opacity="1" fill="#ffffff" fill-opacity="1"></use><g><use xlink:href="#g1KF42jfrq" opacity="1" fill-opacity="0" stroke="#000000" stroke-width="1" stroke-opacity="0"></use></g></g></g></g></g></svg>